<?xml version="1.0" encoding="iso-8859-1"?>
<!-- Uploaded to: SVG Repo, www.svgrepo.com, Generator: SVG Repo Mixer Tools -->
<svg height="800px" width="800px" version="1.1" id="Layer_1" xmlns="http://www.w3.org/2000/svg" xmlns:xlink="http://www.w3.org/1999/xlink" 
	 viewBox="0 0 512 512" xml:space="preserve">
<circle style="fill:#C2D5D8;" cx="256" cy="256" r="256"/>
<path style="fill:#B7C9CC;" d="M499.156,336.08c-0.148-0.38-0.284-0.752-0.452-1.116c-0.268-0.688-0.524-1.384-0.828-2.048
	c-0.268-0.688-0.524-1.388-0.828-2.052c-0.268-0.684-0.524-1.384-0.828-2.048c-0.268-0.684-0.524-1.388-0.828-2.052
	c-0.268-0.68-0.524-1.384-0.824-2.048c-0.272-0.684-0.528-1.384-0.828-2.048c-0.272-0.684-0.528-1.384-0.828-2.048
	c-0.272-0.688-0.524-1.384-0.828-2.048c-0.264-0.672-0.508-1.36-0.808-2.016c-0.276-0.696-0.532-1.408-0.844-2.084
	c-0.268-0.684-0.524-1.388-0.828-2.052c-0.268-0.68-0.524-1.384-0.828-2.048c-0.268-0.684-0.524-1.384-0.828-2.048
	c-0.268-0.684-0.524-1.384-0.828-2.048c-0.268-0.688-0.524-1.384-0.828-2.048c-0.264-0.688-0.524-1.388-0.828-2.052
	c-0.264-0.684-0.524-1.384-0.828-2.048c-0.264-0.684-0.524-1.388-0.828-2.052c-0.264-0.68-0.52-1.376-0.824-2.04
	c-0.268-0.692-0.524-1.392-0.832-2.06c-0.264-0.684-0.524-1.384-0.828-2.048c-0.264-0.684-0.524-1.388-0.828-2.052
	c-0.264-0.68-0.524-1.384-0.824-2.048c-0.268-0.676-0.512-1.364-0.812-2.02c-0.276-0.696-0.528-1.404-0.84-2.084
	c-0.272-0.68-0.524-1.384-0.828-2.048c-0.272-0.684-0.524-1.384-0.828-2.048c-0.272-0.684-0.524-1.384-0.828-2.048
	c-0.268-0.688-0.52-1.384-0.824-2.048c-0.272-0.688-0.524-1.388-0.832-2.056c-0.272-0.684-0.524-1.384-0.828-2.048
	c-0.272-0.684-0.524-1.384-0.828-2.048c-0.272-0.688-0.524-1.384-0.828-2.048c-0.272-0.688-0.524-1.388-0.828-2.052
	c-0.272-0.684-0.524-1.384-0.828-2.048c-0.272-0.684-0.524-1.388-0.828-2.052c-0.272-0.68-0.524-1.384-0.828-2.048
	c-0.272-0.684-0.524-1.384-0.828-2.048c-0.264-0.672-0.508-1.36-0.808-2.012c-0.272-0.696-0.532-1.408-0.844-2.084
	c-0.264-0.684-0.524-1.384-0.828-2.048c-0.264-0.684-0.524-1.384-0.828-2.048c-0.264-0.684-0.524-1.384-0.828-2.048
	c-0.264-0.684-0.524-1.384-0.828-2.048c-0.264-0.684-0.524-1.384-0.828-2.048c-0.264-0.684-0.524-1.384-0.828-2.048
	c-0.264-0.684-0.524-1.384-0.828-2.048c-0.264-0.684-0.52-1.38-0.824-2.044c-0.268-0.688-0.524-1.388-0.832-2.056
	c-0.264-0.684-0.524-1.384-0.824-2.048c-0.268-0.684-0.528-1.384-0.828-2.048c-0.268-0.684-0.528-1.384-0.828-2.048
	c-0.268-0.684-0.528-1.384-0.828-2.048c-0.268-0.684-0.528-1.384-0.828-2.048c-0.268-0.676-0.512-1.364-0.812-2.02
	c-0.276-0.696-0.528-1.404-0.84-2.08c-0.272-0.684-0.524-1.384-0.828-2.048c-0.268-0.684-0.52-1.38-0.824-2.044
	c-0.272-0.688-0.524-1.388-0.832-2.056c-0.272-0.684-0.524-1.384-0.828-2.048c-0.272-0.684-0.524-1.384-0.828-2.048
	c-0.272-0.684-0.524-1.384-0.828-2.048c-0.272-0.684-0.524-1.384-0.828-2.048c-0.272-0.684-0.524-1.384-0.828-2.048
	c-0.272-0.684-0.524-1.384-0.828-2.048c-0.272-0.684-0.524-1.384-0.828-2.048c-0.272-0.684-0.524-1.384-0.828-2.048
	c-0.268-0.684-0.52-1.38-0.824-2.044c-0.272-0.688-0.524-1.388-0.832-2.056c-0.26-0.672-0.512-1.364-0.812-2.02
	c-0.268-0.696-0.532-1.404-0.84-2.08c-0.264-0.684-0.524-1.384-0.828-2.048c-0.264-0.684-0.524-1.384-0.828-2.048
	c-0.264-0.684-0.524-1.384-0.828-2.048c-0.264-0.684-0.524-1.384-0.828-2.048c-0.264-0.684-0.524-1.384-0.828-2.048
	c-0.264-0.684-0.524-1.384-0.828-2.048c-0.264-0.684-0.52-1.38-0.824-2.044c-0.268-0.688-0.524-1.388-0.832-2.056
	c-0.264-0.684-0.524-1.384-0.828-2.048c-0.264-0.684-0.524-1.384-0.824-2.048c-0.268-0.684-0.528-1.384-0.828-2.048
	c-0.268-0.684-0.528-1.384-0.828-2.048c-0.268-0.684-0.528-1.384-0.828-2.048c-0.268-0.672-0.512-1.364-0.812-2.02
	c-0.276-0.696-0.528-1.404-0.84-2.08c-0.272-0.684-0.524-1.384-0.828-2.048c-0.272-0.684-0.524-1.384-0.828-2.048
	c-0.268-0.684-0.52-1.38-0.824-2.044c-0.272-0.688-0.524-1.388-0.832-2.056c-0.272-0.684-0.524-1.384-0.828-2.048
	c-0.272-0.684-0.524-1.384-0.828-2.048c-0.272-0.684-0.524-1.384-0.828-2.048c-0.272-0.684-0.524-1.384-0.828-2.048
	c-0.272-0.684-0.524-1.384-0.828-2.048c-0.272-0.684-0.524-1.384-0.828-2.048c-0.272-0.684-0.524-1.384-0.828-2.048
	c-0.272-0.684-0.524-1.384-0.828-2.048c-0.264-0.684-0.52-1.38-0.824-2.044c-0.264-0.676-0.516-1.368-0.816-2.028
	c-0.268-0.696-0.532-1.404-0.84-2.08c-0.264-0.684-0.524-1.384-0.828-2.048c-0.264-0.684-0.524-1.384-0.828-2.048
	c-0.264-0.684-0.524-1.384-0.828-2.048c-0.264-0.684-0.524-1.384-0.828-2.048c-0.264-0.684-0.524-1.384-0.828-2.048
	c-1.912-4.796-4.552-9.14-8.204-12.792c-8.484-8.484-20.564-11.78-33.876-12.152L250.012,88c0,0-155.568,155.568-203.644,203.648
	c-6.008,6.008-7.676,10.608-5.176,15.788c0.184,0.672,0.496,1.36,0.828,2.048c0.184,0.672,0.496,1.36,0.828,2.048
	c0.184,0.672,0.496,1.36,0.828,2.048c0.184,0.672,0.496,1.36,0.828,2.052c0.184,0.672,0.496,1.36,0.828,2.048
	c0.18,0.668,0.492,1.348,0.824,2.036c0.18,0.68,0.492,1.368,0.828,2.064c0.18,0.672,0.496,1.364,0.828,2.052
	c0.184,0.672,0.496,1.36,0.828,2.048c0.184,0.672,0.496,1.364,0.828,2.052c0.184,0.672,0.496,1.36,0.828,2.048
	c0.184,0.672,0.496,1.36,0.828,2.048c0.184,0.672,0.496,1.36,0.828,2.048c0.184,0.672,0.496,1.36,0.828,2.048
	c0.184,0.672,0.496,1.364,0.828,2.052c0.184,0.672,0.496,1.36,0.828,2.048c0.184,0.672,0.496,1.364,0.828,2.052
	c0.18,0.672,0.496,1.36,0.828,2.052c0.184,0.672,0.492,1.36,0.828,2.048c0.184,0.672,0.492,1.36,0.824,2.052
	c0.184,0.664,0.492,1.352,0.82,2.032c0.184,0.68,0.496,1.372,0.832,2.068c0.184,0.672,0.496,1.36,0.828,2.048
	c0.184,0.672,0.496,1.364,0.828,2.052c0.184,0.672,0.496,1.36,0.828,2.048c0.184,0.672,0.496,1.36,0.828,2.048
	c0.184,0.672,0.496,1.36,0.828,2.048c0.184,0.672,0.496,1.36,0.828,2.048c0.184,0.672,0.496,1.368,0.828,2.056
	c0.184,0.672,0.496,1.36,0.828,2.048c0.184,0.672,0.496,1.36,0.828,2.048c0.184,0.672,0.496,1.36,0.828,2.052
	c0.184,0.672,0.496,1.36,0.828,2.048c0.184,0.672,0.496,1.36,0.828,2.052c0.184,0.672,0.496,1.36,0.828,2.048
	c0.18,0.664,0.492,1.352,0.824,2.036c0.18,0.676,0.492,1.368,0.828,2.064c0.184,0.672,0.496,1.364,0.828,2.052
	c0.18,0.672,0.496,1.36,0.828,2.052c0.184,0.672,0.496,1.36,0.828,2.048c0.184,0.672,0.496,1.36,0.828,2.052
	c0.184,0.672,0.496,1.36,0.828,2.048c0.184,0.672,0.496,1.36,0.828,2.048c0.184,0.672,0.496,1.36,0.828,2.048
	c0.184,0.672,0.496,1.36,0.828,2.048c0.184,0.672,0.496,1.364,0.828,2.052c0.184,0.672,0.496,1.36,0.828,2.048
	c0.184,0.672,0.496,1.364,0.828,2.052c0.18,0.672,0.496,1.36,0.824,2.052c0.188,0.672,0.496,1.36,0.828,2.048
	c0.184,0.668,0.492,1.348,0.82,2.036c0.184,0.68,0.496,1.368,0.832,2.064c0.184,0.672,0.496,1.364,0.828,2.052
	c0.184,0.672,0.496,1.36,0.828,2.048c0.184,0.672,0.496,1.364,0.828,2.052c0.184,0.672,0.496,1.36,0.828,2.048
	c0.184,0.672,0.496,1.36,0.828,2.048c0.184,0.672,0.496,1.36,0.828,2.048c0.184,0.672,0.496,1.368,0.828,2.056
	c0.184,0.672,0.496,1.36,0.828,2.048c0.184,0.672,0.496,1.36,0.828,2.048c0.184,0.672,0.496,1.36,0.828,2.048
	c0.184,0.672,0.496,1.36,0.828,2.052c0.184,0.672,0.496,1.36,0.828,2.048c0.184,0.672,0.496,1.36,0.828,2.052
	c0.184,0.672,0.496,1.36,0.828,2.048c0.18,0.664,0.492,1.348,0.824,2.032c0.18,0.676,0.492,1.372,0.828,2.072
	c0.184,0.672,0.496,1.36,0.828,2.048c0.184,0.672,0.496,1.36,0.828,2.048c0.184,0.672,0.496,1.36,0.828,2.048
	c0.184,0.672,0.496,1.36,0.828,2.048c0.184,0.672,0.496,1.36,0.828,2.052c0.184,0.672,0.496,1.36,0.828,2.048
	c0.184,0.672,0.496,1.36,0.828,2.052c0.044,0.156,0.136,0.328,0.196,0.484C146.08,493.256,198.848,512,256,512
	C369.408,512,465.532,438.228,499.156,336.08z"/>
<path style="fill:#E6E6E6;" d="M414.9,138.848c-0.372-13.312-3.664-25.392-12.148-33.88c-8.484-8.484-20.568-11.78-33.88-12.152
	L250.012,88c0,0-155.568,155.568-203.644,203.648c-8.488,8.488-8.488,14.14,0,22.624c16.968,16.976,73.54,73.544,73.54,73.544
	s53.744,53.74,73.544,73.54c8.484,8.484,14.14,8.484,22.624,0C264.16,413.272,419.72,257.712,419.72,257.712L414.9,138.848z
	 M326.38,181.336c-9.384-9.384-9.368-24.576,0.008-33.948c9.392-9.384,24.556-9.376,33.932,0.008
	c9.38,9.38,9.396,24.548,0.008,33.932C350.952,190.704,335.76,190.72,326.38,181.336z"/>
<path style="fill:#E16B5A;" d="M204.756,455.496c-0.812-0.612-2.184-1.98-2.828-2.628L54.844,305.788
	c-0.648-0.648-2.016-2.016-2.628-2.828c0.612-0.812,1.98-2.18,2.628-2.828l199.928-199.928l113.6,4.604
	c11.944,0.336,20.396,3.164,25.88,8.648c5.476,5.484,8.304,13.9,8.636,25.728l4.612,113.752L207.572,452.864
	C206.936,453.516,205.572,454.884,204.756,455.496z M343.348,128.38c-9.62,0-18.66,3.744-25.444,10.524
	c-6.788,6.792-10.532,15.832-10.536,25.46c0,9.628,3.744,18.668,10.528,25.46c6.788,6.792,15.828,10.528,25.452,10.528
	c9.628,0,18.672-3.744,25.464-10.536c14.032-14.032,14.028-36.868-0.008-50.904C362.016,132.12,352.972,128.38,343.348,128.38z"/>
<path style="fill:#D15C50;" d="M325.484,334.972c-0.024-0.044-0.028-0.084-0.052-0.124c-0.176-0.72-0.456-1.412-0.832-2.068
	c-0.176-0.712-0.456-1.4-0.828-2.048c-0.176-0.716-0.452-1.4-0.828-2.052c-0.176-0.712-0.452-1.404-0.828-2.052
	c-0.176-0.712-0.456-1.4-0.828-2.048c-0.176-0.716-0.456-1.404-0.828-2.052c-0.176-0.712-0.456-1.396-0.828-2.048
	c-0.176-0.716-0.456-1.404-0.828-2.052c-0.176-0.712-0.456-1.392-0.828-2.048c-0.176-0.712-0.456-1.4-0.828-2.048
	c-0.176-0.712-0.456-1.396-0.828-2.048c-0.176-0.712-0.456-1.4-0.828-2.048c-0.176-0.716-0.452-1.4-0.828-2.048
	c-0.176-0.716-0.452-1.404-0.828-2.056c-0.176-0.704-0.452-1.384-0.82-2.032c-0.176-0.72-0.456-1.416-0.832-2.072
	c-0.176-0.712-0.456-1.4-0.828-2.048c-0.176-0.712-0.456-1.4-0.828-2.048c-0.176-0.712-0.456-1.4-0.828-2.048
	c-0.176-0.716-0.456-1.4-0.828-2.052c-0.176-0.712-0.456-1.4-0.828-2.048c-0.176-0.716-0.456-1.396-0.828-2.052
	c-0.176-0.712-0.448-1.396-0.828-2.048c-0.176-0.712-0.448-1.4-0.828-2.052c-0.176-0.712-0.452-1.396-0.828-2.048
	c-0.176-0.716-0.452-1.404-0.828-2.052c-0.176-0.712-0.452-1.396-0.828-2.048c-0.176-0.712-0.452-1.4-0.828-2.048
	c-0.176-0.712-0.452-1.4-0.824-2.048c-0.18-0.704-0.448-1.384-0.82-2.032c-0.176-0.724-0.456-1.416-0.832-2.072
	c-0.176-0.712-0.456-1.4-0.828-2.048c-0.176-0.712-0.456-1.4-0.828-2.048c-0.176-0.716-0.452-1.4-0.828-2.052
	c-0.176-0.712-0.452-1.4-0.828-2.052c-0.176-0.712-0.456-1.4-0.828-2.048c-0.176-0.712-0.456-1.404-0.828-2.048
	c-0.176-0.716-0.456-1.4-0.828-2.052c-0.176-0.712-0.456-1.4-0.828-2.048c-0.176-0.712-0.456-1.396-0.828-2.048
	c-0.176-0.712-0.456-1.4-0.828-2.048c-0.176-0.712-0.456-1.396-0.828-2.048c-0.176-0.712-0.456-1.4-0.828-2.048
	c-0.176-0.712-0.452-1.396-0.828-2.044c-0.176-0.708-0.448-1.392-0.82-2.036c-0.176-0.72-0.456-1.412-0.832-2.068
	c-0.176-0.712-0.456-1.396-0.828-2.048c-0.176-0.712-0.456-1.4-0.828-2.048c-0.176-0.712-0.456-1.396-0.828-2.048
	c-0.176-0.712-0.456-1.4-0.828-2.048c-0.176-0.712-0.456-1.396-0.828-2.048c-0.34-1.364-1.016-2.668-2.084-3.736
	c-3.124-3.124-8.192-3.124-11.312,0l-9.144,9.14c-13.9-8.74-32.508-7.088-44.596,5c-13.272,13.276-12.228,26.772-7.468,37.976
	c0.252,0.692,0.544,1.372,0.828,2.048c0.252,0.692,0.544,1.372,0.828,2.048c0.252,0.696,0.544,1.376,0.824,2.048
	c0.256,0.696,0.548,1.376,0.828,2.052c0.256,0.692,0.548,1.372,0.828,2.048c0.252,0.676,0.532,1.336,0.808,2
	c0.26,0.708,0.552,1.404,0.84,2.088c0.26,0.7,0.548,1.384,0.832,2.064c0.256,0.692,0.548,1.372,0.828,2.048
	c0.256,0.696,0.548,1.376,0.828,2.048c0.256,0.696,0.544,1.376,0.828,2.052c0.256,0.692,0.544,1.372,0.828,2.048
	c0.256,0.692,0.544,1.372,0.828,2.052c0.256,0.688,0.544,1.368,0.828,2.048c0.256,0.692,0.544,1.372,0.828,2.048
	c0.204,0.544,0.424,1.08,0.644,1.608c-0.8,3.288-2.8,6.084-5.588,8.88c-2.728,2.728-6.068,4.44-9.572,5.26
	c-0.028-0.052-0.048-0.096-0.076-0.148c-0.18-0.712-0.456-1.396-0.828-2.048c-0.18-0.712-0.456-1.4-0.828-2.048
	c-0.176-0.712-0.452-1.4-0.828-2.044c-0.176-0.716-0.452-1.404-0.828-2.06c-0.176-0.712-0.456-1.4-0.828-2.048
	c-0.176-0.712-0.456-1.396-0.828-2.048c-0.176-0.712-0.456-1.4-0.828-2.048c-0.176-0.716-0.456-1.4-0.828-2.052
	c-0.176-0.712-0.456-1.4-0.828-2.048c-0.176-0.716-0.456-1.396-0.828-2.052c-0.176-0.712-0.456-1.4-0.828-2.048
	c-0.176-0.712-0.456-1.396-0.828-2.048c-0.176-0.712-0.452-1.396-0.828-2.048c-0.176-0.712-0.448-1.392-0.82-2.04
	c-0.176-0.72-0.456-1.412-0.832-2.068c-0.176-0.712-0.456-1.4-0.828-2.048c-0.176-0.716-0.456-1.396-0.828-2.052
	c-0.176-0.712-0.456-1.4-0.828-2.048c-0.176-0.712-0.456-1.396-0.828-2.048c-0.176-0.712-0.456-1.4-0.828-2.048
	c-0.34-1.368-1.016-2.668-2.084-3.736c-3.12-3.124-8.188-3.124-11.312,0c-10.808,10.804-13.252,26.82-7.408,40.024
	c0.256,0.688,0.536,1.372,0.828,2.048c0.256,0.688,0.536,1.372,0.828,2.048c0.108,0.296,0.212,0.6,0.328,0.9l-8.724,8.724
	c-2.612,2.612-3.012,6.572-1.252,9.628c0.18,0.712,0.456,1.396,0.828,2.048c0.176,0.712,0.456,1.4,0.828,2.048
	c0.176,0.712,0.456,1.4,0.828,2.048c0.176,0.712,0.456,1.404,0.828,2.048c0.176,0.716,0.456,1.4,0.828,2.052
	c0.176,0.704,0.452,1.384,0.82,2.032c0.176,0.716,0.456,1.412,0.832,2.068c0.176,0.716,0.452,1.404,0.828,2.056
	c0.176,0.712,0.456,1.4,0.828,2.048c0.176,0.712,0.456,1.4,0.828,2.048c0.176,0.716,0.456,1.404,0.828,2.052
	c0.176,0.712,0.456,1.396,0.828,2.048c0.176,0.716,0.456,1.404,0.828,2.052c0.176,0.712,0.456,1.392,0.828,2.048
	c0.176,0.712,0.456,1.4,0.828,2.048c0.176,0.712,0.456,1.396,0.828,2.048c0.176,0.712,0.452,1.4,0.828,2.048
	c0.176,0.712,0.452,1.404,0.828,2.056c0.176,0.712,0.456,1.396,0.828,2.048c0.176,0.712,0.456,1.4,0.828,2.048
	c0.176,0.704,0.444,1.384,0.82,2.032c0.176,0.724,0.452,1.416,0.832,2.072c0.176,0.712,0.452,1.4,0.828,2.048
	c0.176,0.712,0.452,1.4,0.828,2.048c0.176,0.716,0.452,1.4,0.828,2.052c0.176,0.712,0.452,1.4,0.828,2.048
	c0.176,0.716,0.452,1.396,0.828,2.052c0.176,0.712,0.448,1.396,0.828,2.048c0.176,0.712,0.448,1.4,0.824,2.052
	c0.18,0.712,0.456,1.396,0.828,2.048c0.176,0.716,0.456,1.404,0.828,2.052c0.176,0.712,0.456,1.396,0.828,2.048
	c0.176,0.712,0.456,1.4,0.828,2.048c0.176,0.712,0.456,1.4,0.828,2.048c0.176,0.712,0.456,1.404,0.828,2.048
	c0.176,0.708,0.452,1.388,0.82,2.036c0.176,0.72,0.456,1.412,0.832,2.068c0.176,0.712,0.452,1.4,0.828,2.048
	c0.176,0.716,0.452,1.404,0.828,2.056c0.176,0.712,0.456,1.4,0.828,2.048c0.176,0.712,0.456,1.4,0.828,2.048
	c0.176,0.716,0.456,1.404,0.828,2.052c0.176,0.712,0.456,1.396,0.828,2.048c0.176,0.716,0.456,1.404,0.828,2.052
	c0.176,0.712,0.456,1.396,0.828,2.048c0.176,0.712,0.456,1.4,0.828,2.048c0.176,0.712,0.456,1.4,0.828,2.048
	c0.176,0.712,0.452,1.4,0.828,2.048c0.176,0.716,0.452,1.404,0.828,2.056c0.176,0.712,0.456,1.396,0.828,2.048
	c0.176,0.704,0.444,1.384,0.82,2.032c0.176,0.72,0.452,1.416,0.832,2.072c0.176,0.712,0.452,1.4,0.828,2.048
	c0.176,0.712,0.452,1.4,0.828,2.048c0.016,0.072,0.06,0.128,0.08,0.196c0.652-0.604,1.324-1.272,1.728-1.672L325.484,334.972z"/>
<path style="fill:#E6E6E6;" d="M228.384,281.556c-10.204-15.304-8.088-22.412-1-29.5c7.8-7.796,20.488-7.796,28.284,0
	c7.796,7.8,7.796,20.488,0,28.284c-3.12,3.124-3.12,8.188,0,11.316c3.124,3.12,8.192,3.12,11.316,0c12.084-12.088,13.74-30.7,5-44.6
	l9.14-9.14c3.124-3.124,3.124-8.192,0-11.316s-8.192-3.124-11.312,0l-9.144,9.14c-13.9-8.74-32.508-7.088-44.596,5
	c-18.356,18.348-9.364,37.148-1,49.684c10.208,15.312,8.092,22.416,1,29.508c-7.792,7.796-20.48,7.796-28.28,0
	c-7.796-7.796-7.796-20.492,0-28.284c3.124-3.124,3.124-8.192,0-11.316c-3.12-3.124-8.188-3.124-11.312,0
	c-12.088,12.084-13.744,30.696-5,44.592l-9.14,9.148c-3.124,3.12-3.124,8.188,0,11.312c3.12,3.12,8.188,3.12,11.312,0l9.14-9.14
	c13.904,8.74,32.508,7.084,44.592-5C245.74,312.892,236.752,294.092,228.384,281.556z"/>
</svg>